<svg xmlns="http://www.w3.org/2000/svg" viewBox="0 0 334.62 80.41"><defs><style>.cls-1{fill:#0e1111;}.cls-2{fill:#414a4c;}</style></defs><title>color_horizontal_outline</title><g id="Layer_2" data-name="Layer 2"><g id="Layer_1-2" data-name="Layer 1"><path class="cls-1" d="M44,38.71H42.07A20.85,20.85,0,0,0,31.3,0H20.85A20.87,20.87,0,0,0,0,20.85C0,20.91,0,21,0,21v38.4a1,1,0,0,0,0,.18.38.38,0,0,0,0,.13v.58A13.26,13.26,0,0,0,.31,63,20.8,20.8,0,0,0,20.85,80.41H44a20.85,20.85,0,1,0,0-41.7Zm0,38.7H20.85a17.82,17.82,0,0,1-17.59-15A9.73,9.73,0,0,1,3,60.27v-.58s0-.09,0-.14,0-.1,0-.12V21c0-.06,0-.12,0-.13A17.87,17.87,0,0,1,20.85,3H31.3a17.86,17.86,0,0,1,0,35.71,1.5,1.5,0,0,0,0,3H44a17.85,17.85,0,1,1,0,35.7Z"/><path class="cls-2" d="M39.57,55.43H26a.76.76,0,0,1-.75-.75V46.6A5.21,5.21,0,0,0,23.86,43l-2.27-2.81,2.27-2.81a5.25,5.25,0,0,0,1.41-3.59V25.73A.75.75,0,0,1,26,25h4.39a5.25,5.25,0,0,0,0-10.5H26A11.25,11.25,0,0,0,14.78,25.73v6.21l-3.27,4.78a5.26,5.26,0,0,0,0,7l3.27,4.78v6.21A11.25,11.25,0,0,0,26,65.92H39.57a5.25,5.25,0,1,0,0-10.49Zm0,7.49H26a8.25,8.25,0,0,1-8.24-8.24V48a1.52,1.52,0,0,0-.26-.85l-3.59-5.25-.14-.18a2.24,2.24,0,0,1,0-3l.14-.18,3.59-5.25a1.5,1.5,0,0,0,.26-.85V25.73A8.25,8.25,0,0,1,26,17.49h4.39a2.25,2.25,0,0,1,0,4.5H26a3.75,3.75,0,0,0-3.75,3.74v8.08a2.24,2.24,0,0,1-.62,1.56l-.08.09-3.07,3.8a1.49,1.49,0,0,0,0,1.89L21.57,45l.08.09a2.24,2.24,0,0,1,.62,1.56v8.08A3.75,3.75,0,0,0,26,58.43H39.57a2.25,2.25,0,1,1,0,4.49Z"/><path class="cls-1" d="M85,78.08c-1.24,0-1.8-.56-1.8-1.79V4.12A1.76,1.76,0,0,1,85,2.44H95.69c11.56,0,16.72,6.62,16.72,19.75,0,6.51-1.35,11.45-3.93,14.7a13.28,13.28,0,0,1-4.15,3.37,11.86,11.86,0,0,1,4.15,3.26c2.58,3.25,3.93,8.19,3.93,14.81,0,13.13-5.16,19.75-16.72,19.75ZM86.82,5.92V38.47h8.87c9.32,0,13.13-4.72,13.13-16.28S105.12,5.92,95.69,5.92Zm0,36V74.6h8.87c9.43,0,13.13-4.6,13.13-16.27S105,42,95.69,42Z"/><path class="cls-1" d="M135.31,42V74.6h21.88a1.76,1.76,0,0,1,1.8,1.69c0,1.23-.56,1.79-1.8,1.79H133.62a1.55,1.55,0,0,1-1.79-1.79V4.12a1.75,1.75,0,0,1,1.79-1.68h23.57A1.76,1.76,0,0,1,159,4.12c0,1.24-.56,1.8-1.8,1.8H135.31V38.47h21.88c1.24,0,1.8.56,1.8,1.79a1.76,1.76,0,0,1-1.8,1.69Z"/><path class="cls-1" d="M209.49,76.18c0,1.23-.56,1.79-1.8,1.79A1.75,1.75,0,0,1,206,76.18V57c0-9.31-5.16-14.47-14.14-14.47h-10.1V76.18c0,1.23-.56,1.79-1.8,1.79a1.75,1.75,0,0,1-1.68-1.79V4A1.72,1.72,0,0,1,180,2.33h11.9c12,0,17.51,6.17,17.51,20,0,6.85-1.35,11.9-4.15,15.16a11.76,11.76,0,0,1-4.61,3.36,15.66,15.66,0,0,1,3.93,2.81c3.26,3.14,4.94,7.63,4.94,13.35ZM181.77,5.81V39h10.1c9.76,0,13.92-4.6,13.92-16.73,0-11.67-4-16.49-13.92-16.49Z"/><path class="cls-1" d="M228.23,22.42c0-12.91,5.39-20,16.05-20s16.16,7,16.16,20V58c0,8.42-2.13,13.25-5.27,16.28s-7.19,3.81-10.89,3.81-7.63-.78-10.77-3.81-5.28-7.86-5.28-16.28ZM231.71,58c0,11.34,4.15,16.61,12.57,16.61,8.19,0,12.57-4.93,12.57-16.61V22.42c0-11.56-4.15-16.5-12.57-16.5s-12.57,5.27-12.57,16.5Z"/><path class="cls-1" d="M309.37,78.08A1.47,1.47,0,0,1,307.8,77L282.1,13.33v63a1.55,1.55,0,0,1-1.79,1.79c-1.24,0-1.8-.56-1.8-1.79V4.12A1.81,1.81,0,0,1,282,3.56L307.58,67.2V4.12a1.8,1.8,0,0,1,3.59,0V76.29a1.63,1.63,0,0,1-1.46,1.79Z"/><path class="cls-1" d="M331,4.12a1.8,1.8,0,0,1,3.59,0V76.29a1.55,1.55,0,0,1-1.79,1.79c-1.24,0-1.8-.56-1.8-1.79Z"/></g></g></svg>